<svg width="185" height="44" viewBox="0 0 185 44" fill="none" xmlns="http://www.w3.org/2000/svg">
<path d="M3.384 9.8H14.4C17.088 9.8 19.476 10.328 21.564 11.384C23.652 12.416 25.272 13.892 26.424 15.812C27.576 17.708 28.152 19.904 28.152 22.4C28.152 24.896 27.576 27.104 26.424 29.024C25.272 30.92 23.652 32.396 21.564 33.452C19.476 34.484 17.088 35 14.4 35H3.384V9.8ZM14.184 31.04C16.032 31.04 17.652 30.692 19.044 29.996C20.46 29.276 21.54 28.268 22.284 26.972C23.052 25.652 23.436 24.128 23.436 22.4C23.436 20.672 23.052 19.16 22.284 17.864C21.54 16.544 20.46 15.536 19.044 14.84C17.652 14.12 16.032 13.76 14.184 13.76H8.064V31.04H14.184Z" fill="#262635"/>
<path d="M43.592 22.112H48.02V32.156C46.724 33.188 45.212 33.98 43.484 34.532C41.756 35.084 39.98 35.36 38.156 35.36C35.588 35.36 33.272 34.808 31.208 33.704C29.144 32.576 27.524 31.028 26.348 29.06C25.172 27.092 24.584 24.872 24.584 22.4C24.584 19.928 25.172 17.708 26.348 15.74C27.524 13.772 29.144 12.236 31.208 11.132C33.296 10.004 35.636 9.44 38.228 9.44C40.34 9.44 42.26 9.788 43.988 10.484C45.716 11.18 47.168 12.2 48.344 13.544L45.392 16.424C43.472 14.504 41.156 13.544 38.444 13.544C36.668 13.544 35.084 13.916 33.692 14.66C32.324 15.404 31.244 16.448 30.452 17.792C29.684 19.136 29.3 20.672 29.3 22.4C29.3 24.08 29.684 25.592 30.452 26.936C31.244 28.28 32.324 29.336 33.692 30.104C35.084 30.872 36.656 31.256 38.408 31.256C40.376 31.256 42.104 30.824 43.592 29.96V22.112Z" fill="#262635"/>
<path d="M101.212 9.8L92.86 35H87.892L81.664 16.352L75.328 35H70.324L61.972 9.8H66.832L73.096 28.952L79.612 9.8H83.932L90.304 29.06L96.748 9.8H101.212ZM116.515 35.36C113.947 35.36 111.631 34.808 109.567 33.704C107.503 32.576 105.883 31.028 104.707 29.06C103.531 27.068 102.943 24.848 102.943 22.4C102.943 19.952 103.531 17.744 104.707 15.776C105.883 13.784 107.503 12.236 109.567 11.132C111.631 10.004 113.947 9.44 116.515 9.44C119.083 9.44 121.399 10.004 123.463 11.132C125.527 12.236 127.147 13.772 128.323 15.74C129.499 17.708 130.087 19.928 130.087 22.4C130.087 24.872 129.499 27.092 128.323 29.06C127.147 31.028 125.527 32.576 123.463 33.704C121.399 34.808 119.083 35.36 116.515 35.36ZM116.515 31.256C118.195 31.256 119.707 30.884 121.051 30.14C122.395 29.372 123.451 28.316 124.219 26.972C124.987 25.604 125.371 24.08 125.371 22.4C125.371 20.72 124.987 19.208 124.219 17.864C123.451 16.496 122.395 15.44 121.051 14.696C119.707 13.928 118.195 13.544 116.515 13.544C114.835 13.544 113.323 13.928 111.979 14.696C110.635 15.44 109.579 16.496 108.811 17.864C108.043 19.208 107.659 20.72 107.659 22.4C107.659 24.08 108.043 25.604 108.811 26.972C109.579 28.316 110.635 29.372 111.979 30.14C113.323 30.884 114.835 31.256 116.515 31.256ZM151.536 35L146.388 27.62C146.172 27.644 145.848 27.656 145.416 27.656H139.728V35H135.048V9.8H145.416C147.6 9.8 149.496 10.16 151.104 10.88C152.736 11.6 153.984 12.632 154.848 13.976C155.712 15.32 156.144 16.916 156.144 18.764C156.144 20.66 155.676 22.292 154.74 23.66C153.828 25.028 152.508 26.048 150.78 26.72L156.576 35H151.536ZM151.428 18.764C151.428 17.156 150.9 15.92 149.844 15.056C148.788 14.192 147.24 13.76 145.2 13.76H139.728V23.804H145.2C147.24 23.804 148.788 23.372 149.844 22.508C150.9 21.62 151.428 20.372 151.428 18.764ZM170.056 24.452L166.06 28.556V35H161.38V9.8H166.06V22.724L178.516 9.8H183.772L173.188 21.068L184.42 35H178.948L170.056 24.452Z" fill="#FF615F"/>
</svg>
